<svg id="Capa_1" data-name="Capa 1" xmlns="http://www.w3.org/2000/svg" viewBox="0 0 500 500"><title>Mesa de trabajo 1 copia</title><path d="M250.06,121.83A128.17,128.17,0,1,0,378.22,250,128,128,0,0,0,250.06,121.83Zm0,211.49A83.32,83.32,0,1,1,333.38,250a83.47,83.47,0,0,1-83.32,83.32Zm163.3-216.73a29.9,29.9,0,1,1-29.9-29.89A29.83,29.83,0,0,1,413.36,116.59Zm84.88,30.34c-1.89-40-11-75.51-40.38-104.74S393.17,3.82,353.12,1.81c-41.27-2.34-165-2.34-206.24,0-39.94,1.9-75.41,11-104.74,40.27S3.76,106.78,1.76,146.82c-2.35,41.27-2.35,165,0,206.25,1.89,40,11,75.51,40.38,104.74s64.69,38.37,104.74,40.38c41.27,2.34,165,2.34,206.24,0,40.05-1.9,75.52-11.05,104.74-40.38s38.38-64.7,40.38-104.74c2.35-41.27,2.35-164.87,0-206.14ZM444.92,397.35a84.36,84.36,0,0,1-47.51,47.52c-32.91,13.05-111,10-147.35,10s-114.56,2.9-147.36-10a84.33,84.33,0,0,1-47.51-47.52c-13-32.9-10-111-10-147.35s-2.9-114.56,10-147.35A84.36,84.36,0,0,1,102.7,55.13c32.91-13.05,111-10,147.36-10s114.55-2.9,147.35,10a84.33,84.33,0,0,1,47.51,47.52c13.06,32.9,10,111,10,147.35S458,364.56,444.92,397.35Z"/></svg>