<svg id="phone-svg" data-name="Capa 1" xmlns="http://www.w3.org/2000/svg" viewBox="0 0 662.64 662.64"><defs><style>.cls-1{fill:none;stroke:#10cfcf;stroke-miterlimit:10;stroke-width:70px;}</style></defs><title>phone</title><path class="cls-1" d="M212.36,257.69,264,206.08c9.18-9.17,4.28-21.19,0-33.22,0,0-43.8-99-58.7-125.17-6.41-11.28-24.05-9.17-33.22,0L46.88,172.86a23.5,23.5,0,0,0,0,33.22L155.07,314.27l.36.36L358,517.21,466.56,625.76a23.48,23.48,0,0,0,33.22,0L625,500.59c9.18-9.17,11.28-26.8,0-33.22-26.18-14.9-125.17-58.7-125.17-58.7-12-4.28-24-9.18-33.22,0L415,460.28" transform="translate(-5 -5)"/></svg>